<mxfile host="app.diagrams.net" agent="Mozilla/5.0 (Windows NT 10.0; Win64; x64) AppleWebKit/537.36 (KHTML, like Gecko) Chrome/129.0.0.0 Safari/537.36" version="24.8.0">
  <diagram name="Page-1" id="1k6NwFKqmDq_QukoTFWd">
    <mxGraphModel dx="1750" dy="1697" grid="1" gridSize="10" guides="1" tooltips="1" connect="1" arrows="1" fold="1" page="1" pageScale="1" pageWidth="1169" pageHeight="827" math="0" shadow="0">
      <root>
        <mxCell id="0" />
        <mxCell id="1" parent="0" />
        <mxCell id="10odNjJhLR96Ez2bC5Ds-97" value="" style="rounded=1;whiteSpace=wrap;html=1;fillColor=#d5e8d4;strokeColor=#330000;strokeWidth=4;" parent="1" vertex="1">
          <mxGeometry x="1530" y="-70" width="350" height="560" as="geometry" />
        </mxCell>
        <mxCell id="10odNjJhLR96Ez2bC5Ds-54" value="" style="rounded=1;whiteSpace=wrap;html=1;fillColor=#eeeeee;strokeColor=#36393d;" parent="1" vertex="1">
          <mxGeometry x="1566.75" y="17.5" width="280" height="182.5" as="geometry" />
        </mxCell>
        <mxCell id="10odNjJhLR96Ez2bC5Ds-53" value="" style="rounded=1;whiteSpace=wrap;html=1;fillColor=#eeeeee;strokeColor=#36393d;" parent="1" vertex="1">
          <mxGeometry x="1568.5" y="210" width="276.51" height="180" as="geometry" />
        </mxCell>
        <mxCell id="10odNjJhLR96Ez2bC5Ds-52" value="" style="rounded=1;whiteSpace=wrap;html=1;fillColor=#fff2cc;strokeColor=#330000;strokeWidth=4;" parent="1" vertex="1">
          <mxGeometry x="1095" y="310" width="280" height="180" as="geometry" />
        </mxCell>
        <mxCell id="10odNjJhLR96Ez2bC5Ds-17" value="" style="rounded=1;whiteSpace=wrap;html=1;fillColor=#f8cecc;strokeColor=#330000;strokeWidth=4;glass=0;shadow=0;" parent="1" vertex="1">
          <mxGeometry x="795" y="310" width="280" height="180" as="geometry" />
        </mxCell>
        <mxCell id="10odNjJhLR96Ez2bC5Ds-16" value="" style="rounded=1;whiteSpace=wrap;html=1;fillColor=#dae8fc;strokeColor=#330000;strokeWidth=4;" parent="1" vertex="1">
          <mxGeometry x="490" y="310" width="285" height="180" as="geometry" />
        </mxCell>
        <mxCell id="10odNjJhLR96Ez2bC5Ds-2" value="" style="verticalLabelPosition=bottom;sketch=0;aspect=fixed;html=1;verticalAlign=top;strokeColor=none;align=center;outlineConnect=0;shape=mxgraph.citrix.thin_client;" parent="1" vertex="1">
          <mxGeometry x="617.5" y="330" width="30" height="30" as="geometry" />
        </mxCell>
        <mxCell id="10odNjJhLR96Ez2bC5Ds-3" value="" style="verticalLabelPosition=bottom;sketch=0;aspect=fixed;html=1;verticalAlign=top;strokeColor=none;align=center;outlineConnect=0;shape=mxgraph.citrix.thin_client;" parent="1" vertex="1">
          <mxGeometry x="570" y="390" width="30" height="30" as="geometry" />
        </mxCell>
        <mxCell id="10odNjJhLR96Ez2bC5Ds-4" value="" style="verticalLabelPosition=bottom;sketch=0;aspect=fixed;html=1;verticalAlign=top;strokeColor=none;align=center;outlineConnect=0;shape=mxgraph.citrix.thin_client;" parent="1" vertex="1">
          <mxGeometry x="554.5" y="330" width="30" height="30" as="geometry" />
        </mxCell>
        <mxCell id="10odNjJhLR96Ez2bC5Ds-5" value="" style="verticalLabelPosition=bottom;sketch=0;aspect=fixed;html=1;verticalAlign=top;strokeColor=none;align=center;outlineConnect=0;shape=mxgraph.citrix.thin_client;" parent="1" vertex="1">
          <mxGeometry x="656.51" y="390" width="30" height="30" as="geometry" />
        </mxCell>
        <mxCell id="10odNjJhLR96Ez2bC5Ds-6" value="" style="verticalLabelPosition=bottom;sketch=0;aspect=fixed;html=1;verticalAlign=top;strokeColor=none;align=center;outlineConnect=0;shape=mxgraph.citrix.thin_client;" parent="1" vertex="1">
          <mxGeometry x="680" y="330" width="30" height="30" as="geometry" />
        </mxCell>
        <mxCell id="10odNjJhLR96Ez2bC5Ds-8" value="" style="verticalLabelPosition=bottom;sketch=0;aspect=fixed;html=1;verticalAlign=top;strokeColor=none;align=center;outlineConnect=0;shape=mxgraph.citrix.thin_client;" parent="1" vertex="1">
          <mxGeometry x="900" y="390" width="30" height="30" as="geometry" />
        </mxCell>
        <mxCell id="10odNjJhLR96Ez2bC5Ds-9" value="" style="verticalLabelPosition=bottom;sketch=0;aspect=fixed;html=1;verticalAlign=top;strokeColor=none;align=center;outlineConnect=0;shape=mxgraph.citrix.thin_client;" parent="1" vertex="1">
          <mxGeometry x="840" y="330" width="30" height="30" as="geometry" />
        </mxCell>
        <mxCell id="10odNjJhLR96Ez2bC5Ds-10" value="" style="verticalLabelPosition=bottom;sketch=0;aspect=fixed;html=1;verticalAlign=top;strokeColor=none;align=center;outlineConnect=0;shape=mxgraph.citrix.thin_client;" parent="1" vertex="1">
          <mxGeometry x="959.74" y="390" width="30" height="30" as="geometry" />
        </mxCell>
        <mxCell id="10odNjJhLR96Ez2bC5Ds-11" value="" style="verticalLabelPosition=bottom;sketch=0;aspect=fixed;html=1;verticalAlign=top;strokeColor=none;align=center;outlineConnect=0;shape=mxgraph.citrix.thin_client;" parent="1" vertex="1">
          <mxGeometry x="840" y="390" width="30" height="30" as="geometry" />
        </mxCell>
        <mxCell id="10odNjJhLR96Ez2bC5Ds-12" value="" style="verticalLabelPosition=bottom;sketch=0;aspect=fixed;html=1;verticalAlign=top;strokeColor=none;align=center;outlineConnect=0;shape=mxgraph.citrix.thin_client;" parent="1" vertex="1">
          <mxGeometry x="970" y="330" width="30" height="30" as="geometry" />
        </mxCell>
        <mxCell id="10odNjJhLR96Ez2bC5Ds-13" value="" style="verticalLabelPosition=bottom;sketch=0;aspect=fixed;html=1;verticalAlign=top;strokeColor=none;align=center;outlineConnect=0;shape=mxgraph.citrix.thin_client;" parent="1" vertex="1">
          <mxGeometry x="1020" y="330" width="30" height="30" as="geometry" />
        </mxCell>
        <mxCell id="10odNjJhLR96Ez2bC5Ds-14" value="" style="verticalLabelPosition=bottom;sketch=0;aspect=fixed;html=1;verticalAlign=top;strokeColor=none;align=center;outlineConnect=0;shape=mxgraph.citrix.thin_client;" parent="1" vertex="1">
          <mxGeometry x="1020" y="390" width="30" height="30" as="geometry" />
        </mxCell>
        <mxCell id="10odNjJhLR96Ez2bC5Ds-18" value="" style="verticalLabelPosition=bottom;sketch=0;aspect=fixed;html=1;verticalAlign=top;strokeColor=none;align=center;outlineConnect=0;shape=mxgraph.citrix.thin_client;" parent="1" vertex="1">
          <mxGeometry x="1643.5" y="66.88" width="30" height="30" as="geometry" />
        </mxCell>
        <mxCell id="10odNjJhLR96Ez2bC5Ds-19" value="" style="verticalLabelPosition=bottom;sketch=0;aspect=fixed;html=1;verticalAlign=top;strokeColor=none;align=center;outlineConnect=0;shape=mxgraph.citrix.thin_client;" parent="1" vertex="1">
          <mxGeometry x="1641.75" y="120" width="30" height="30" as="geometry" />
        </mxCell>
        <mxCell id="10odNjJhLR96Ez2bC5Ds-20" value="" style="verticalLabelPosition=bottom;sketch=0;aspect=fixed;html=1;verticalAlign=top;strokeColor=none;align=center;outlineConnect=0;shape=mxgraph.citrix.thin_client;" parent="1" vertex="1">
          <mxGeometry x="1590" y="66.88" width="30" height="30" as="geometry" />
        </mxCell>
        <mxCell id="10odNjJhLR96Ez2bC5Ds-22" value="" style="verticalLabelPosition=bottom;sketch=0;aspect=fixed;html=1;verticalAlign=top;strokeColor=none;align=center;outlineConnect=0;shape=mxgraph.citrix.thin_client;" parent="1" vertex="1">
          <mxGeometry x="1590" y="120" width="30" height="30" as="geometry" />
        </mxCell>
        <mxCell id="10odNjJhLR96Ez2bC5Ds-23" value="" style="verticalLabelPosition=bottom;sketch=0;aspect=fixed;html=1;verticalAlign=top;strokeColor=none;align=center;outlineConnect=0;shape=mxgraph.citrix.thin_client;" parent="1" vertex="1">
          <mxGeometry x="1690" y="66.88" width="30" height="30" as="geometry" />
        </mxCell>
        <mxCell id="10odNjJhLR96Ez2bC5Ds-24" value="" style="verticalLabelPosition=bottom;sketch=0;aspect=fixed;html=1;verticalAlign=top;strokeColor=none;align=center;outlineConnect=0;shape=mxgraph.citrix.thin_client;" parent="1" vertex="1">
          <mxGeometry x="1740.01" y="66.88" width="30" height="30" as="geometry" />
        </mxCell>
        <mxCell id="10odNjJhLR96Ez2bC5Ds-25" value="" style="verticalLabelPosition=bottom;sketch=0;aspect=fixed;html=1;verticalAlign=top;strokeColor=none;align=center;outlineConnect=0;shape=mxgraph.citrix.thin_client;" parent="1" vertex="1">
          <mxGeometry x="1740.01" y="120" width="30" height="30" as="geometry" />
        </mxCell>
        <mxCell id="10odNjJhLR96Ez2bC5Ds-27" value="" style="verticalLabelPosition=bottom;sketch=0;aspect=fixed;html=1;verticalAlign=top;strokeColor=none;align=center;outlineConnect=0;shape=mxgraph.citrix.thin_client;" parent="1" vertex="1">
          <mxGeometry x="1630" y="285" width="30" height="30" as="geometry" />
        </mxCell>
        <mxCell id="10odNjJhLR96Ez2bC5Ds-29" value="" style="verticalLabelPosition=bottom;sketch=0;aspect=fixed;html=1;verticalAlign=top;strokeColor=none;align=center;outlineConnect=0;shape=mxgraph.citrix.thin_client;" parent="1" vertex="1">
          <mxGeometry x="1680" y="285" width="30" height="30" as="geometry" />
        </mxCell>
        <mxCell id="10odNjJhLR96Ez2bC5Ds-30" value="" style="verticalLabelPosition=bottom;sketch=0;aspect=fixed;html=1;verticalAlign=top;strokeColor=none;align=center;outlineConnect=0;shape=mxgraph.citrix.thin_client;direction=south;" parent="1" vertex="1">
          <mxGeometry x="1580" y="285" width="30" height="30" as="geometry" />
        </mxCell>
        <mxCell id="10odNjJhLR96Ez2bC5Ds-31" value="" style="verticalLabelPosition=bottom;sketch=0;aspect=fixed;html=1;verticalAlign=top;strokeColor=none;align=center;outlineConnect=0;shape=mxgraph.citrix.thin_client;" parent="1" vertex="1">
          <mxGeometry x="1790" y="120" width="30" height="30" as="geometry" />
        </mxCell>
        <mxCell id="10odNjJhLR96Ez2bC5Ds-32" value="" style="verticalLabelPosition=bottom;sketch=0;aspect=fixed;html=1;verticalAlign=top;strokeColor=none;align=center;outlineConnect=0;shape=mxgraph.citrix.thin_client;" parent="1" vertex="1">
          <mxGeometry x="1790" y="66.88" width="30" height="30" as="geometry" />
        </mxCell>
        <mxCell id="10odNjJhLR96Ez2bC5Ds-33" value="" style="verticalLabelPosition=bottom;sketch=0;aspect=fixed;html=1;verticalAlign=top;strokeColor=none;align=center;outlineConnect=0;shape=mxgraph.citrix.thin_client;" parent="1" vertex="1">
          <mxGeometry x="1730" y="285" width="30" height="30" as="geometry" />
        </mxCell>
        <mxCell id="10odNjJhLR96Ez2bC5Ds-34" value="" style="verticalLabelPosition=bottom;sketch=0;aspect=fixed;html=1;verticalAlign=top;strokeColor=none;align=center;outlineConnect=0;shape=mxgraph.citrix.thin_client;" parent="1" vertex="1">
          <mxGeometry x="1630" y="345" width="30" height="30" as="geometry" />
        </mxCell>
        <mxCell id="10odNjJhLR96Ez2bC5Ds-36" value="" style="verticalLabelPosition=bottom;sketch=0;aspect=fixed;html=1;verticalAlign=top;strokeColor=none;align=center;outlineConnect=0;shape=mxgraph.citrix.thin_client;" parent="1" vertex="1">
          <mxGeometry x="1580" y="345" width="30" height="30" as="geometry" />
        </mxCell>
        <mxCell id="10odNjJhLR96Ez2bC5Ds-37" value="" style="verticalLabelPosition=bottom;sketch=0;aspect=fixed;html=1;verticalAlign=top;strokeColor=none;align=center;outlineConnect=0;shape=mxgraph.citrix.thin_client;" parent="1" vertex="1">
          <mxGeometry x="1780" y="345" width="30" height="30" as="geometry" />
        </mxCell>
        <mxCell id="10odNjJhLR96Ez2bC5Ds-39" value="" style="verticalLabelPosition=bottom;sketch=0;aspect=fixed;html=1;verticalAlign=top;strokeColor=none;align=center;outlineConnect=0;shape=mxgraph.citrix.thin_client;" parent="1" vertex="1">
          <mxGeometry x="1680" y="345" width="30" height="30" as="geometry" />
        </mxCell>
        <mxCell id="10odNjJhLR96Ez2bC5Ds-40" value="" style="verticalLabelPosition=bottom;sketch=0;aspect=fixed;html=1;verticalAlign=top;strokeColor=none;align=center;outlineConnect=0;shape=mxgraph.citrix.thin_client;" parent="1" vertex="1">
          <mxGeometry x="1730" y="345" width="30" height="30" as="geometry" />
        </mxCell>
        <mxCell id="10odNjJhLR96Ez2bC5Ds-41" value="" style="verticalLabelPosition=bottom;sketch=0;aspect=fixed;html=1;verticalAlign=top;strokeColor=none;align=center;outlineConnect=0;shape=mxgraph.citrix.thin_client;" parent="1" vertex="1">
          <mxGeometry x="1780" y="285" width="30" height="30" as="geometry" />
        </mxCell>
        <mxCell id="10odNjJhLR96Ez2bC5Ds-42" value="" style="verticalLabelPosition=bottom;sketch=0;aspect=fixed;html=1;verticalAlign=top;strokeColor=none;align=center;outlineConnect=0;shape=mxgraph.citrix.thin_client;" parent="1" vertex="1">
          <mxGeometry x="1170" y="320" width="30" height="30" as="geometry" />
        </mxCell>
        <mxCell id="10odNjJhLR96Ez2bC5Ds-43" value="" style="verticalLabelPosition=bottom;sketch=0;aspect=fixed;html=1;verticalAlign=top;strokeColor=none;align=center;outlineConnect=0;shape=mxgraph.citrix.thin_client;" parent="1" vertex="1">
          <mxGeometry x="1220" y="320" width="30" height="30" as="geometry" />
        </mxCell>
        <mxCell id="10odNjJhLR96Ez2bC5Ds-44" value="" style="verticalLabelPosition=bottom;sketch=0;aspect=fixed;html=1;verticalAlign=top;strokeColor=none;align=center;outlineConnect=0;shape=mxgraph.citrix.thin_client;" parent="1" vertex="1">
          <mxGeometry x="1120" y="320" width="30" height="30" as="geometry" />
        </mxCell>
        <mxCell id="10odNjJhLR96Ez2bC5Ds-45" value="" style="verticalLabelPosition=bottom;sketch=0;aspect=fixed;html=1;verticalAlign=top;strokeColor=none;align=center;outlineConnect=0;shape=mxgraph.citrix.thin_client;" parent="1" vertex="1">
          <mxGeometry x="1270" y="320" width="30" height="30" as="geometry" />
        </mxCell>
        <mxCell id="10odNjJhLR96Ez2bC5Ds-46" value="" style="verticalLabelPosition=bottom;sketch=0;aspect=fixed;html=1;verticalAlign=top;strokeColor=none;align=center;outlineConnect=0;shape=mxgraph.citrix.thin_client;" parent="1" vertex="1">
          <mxGeometry x="1170" y="385" width="30" height="30" as="geometry" />
        </mxCell>
        <mxCell id="10odNjJhLR96Ez2bC5Ds-47" value="" style="verticalLabelPosition=bottom;sketch=0;aspect=fixed;html=1;verticalAlign=top;strokeColor=none;align=center;outlineConnect=0;shape=mxgraph.citrix.thin_client;" parent="1" vertex="1">
          <mxGeometry x="1120" y="385" width="30" height="30" as="geometry" />
        </mxCell>
        <mxCell id="10odNjJhLR96Ez2bC5Ds-48" value="" style="verticalLabelPosition=bottom;sketch=0;aspect=fixed;html=1;verticalAlign=top;strokeColor=none;align=center;outlineConnect=0;shape=mxgraph.citrix.thin_client;" parent="1" vertex="1">
          <mxGeometry x="1320" y="385" width="30" height="30" as="geometry" />
        </mxCell>
        <mxCell id="10odNjJhLR96Ez2bC5Ds-49" value="" style="verticalLabelPosition=bottom;sketch=0;aspect=fixed;html=1;verticalAlign=top;strokeColor=none;align=center;outlineConnect=0;shape=mxgraph.citrix.thin_client;" parent="1" vertex="1">
          <mxGeometry x="1220" y="385" width="30" height="30" as="geometry" />
        </mxCell>
        <mxCell id="10odNjJhLR96Ez2bC5Ds-50" value="" style="verticalLabelPosition=bottom;sketch=0;aspect=fixed;html=1;verticalAlign=top;strokeColor=none;align=center;outlineConnect=0;shape=mxgraph.citrix.thin_client;" parent="1" vertex="1">
          <mxGeometry x="1270" y="385" width="30" height="30" as="geometry" />
        </mxCell>
        <mxCell id="10odNjJhLR96Ez2bC5Ds-51" value="" style="verticalLabelPosition=bottom;sketch=0;aspect=fixed;html=1;verticalAlign=top;strokeColor=none;align=center;outlineConnect=0;shape=mxgraph.citrix.thin_client;" parent="1" vertex="1">
          <mxGeometry x="1320" y="320" width="30" height="30" as="geometry" />
        </mxCell>
        <mxCell id="10odNjJhLR96Ez2bC5Ds-55" value="" style="verticalLabelPosition=bottom;sketch=0;aspect=fixed;html=1;verticalAlign=top;strokeColor=none;align=center;outlineConnect=0;shape=mxgraph.citrix.switch;shadow=1;" parent="1" vertex="1">
          <mxGeometry x="1671.75" y="160" width="66.51" height="30" as="geometry" />
        </mxCell>
        <mxCell id="10odNjJhLR96Ez2bC5Ds-57" value="" style="verticalLabelPosition=bottom;sketch=0;aspect=fixed;html=1;verticalAlign=top;strokeColor=none;align=center;outlineConnect=0;shape=mxgraph.citrix.switch;shadow=1;" parent="1" vertex="1">
          <mxGeometry x="1673.5" y="228" width="66.51" height="30" as="geometry" />
        </mxCell>
        <mxCell id="10odNjJhLR96Ez2bC5Ds-60" value="" style="verticalLabelPosition=bottom;sketch=0;aspect=fixed;html=1;verticalAlign=top;strokeColor=none;align=center;outlineConnect=0;shape=mxgraph.citrix.switch;shadow=1;" parent="1" vertex="1">
          <mxGeometry x="1200" y="170" width="66.51" height="30" as="geometry" />
        </mxCell>
        <mxCell id="10odNjJhLR96Ez2bC5Ds-61" value="" style="verticalLabelPosition=bottom;sketch=0;aspect=fixed;html=1;verticalAlign=top;strokeColor=none;align=center;outlineConnect=0;shape=mxgraph.citrix.switch;shadow=1;" parent="1" vertex="1">
          <mxGeometry x="913.49" y="160" width="66.51" height="30" as="geometry" />
        </mxCell>
        <mxCell id="10odNjJhLR96Ez2bC5Ds-62" value="" style="verticalLabelPosition=bottom;sketch=0;aspect=fixed;html=1;verticalAlign=top;strokeColor=#36393d;align=center;outlineConnect=0;shape=mxgraph.citrix.switch;fillColor=#cce5ff;shadow=1;" parent="1" vertex="1">
          <mxGeometry x="599.25" y="160" width="66.51" height="30" as="geometry" />
        </mxCell>
        <mxCell id="10odNjJhLR96Ez2bC5Ds-63" value="" style="verticalLabelPosition=bottom;sketch=0;aspect=fixed;html=1;verticalAlign=top;strokeColor=none;align=center;outlineConnect=0;shape=mxgraph.citrix.switch;shadow=1;" parent="1" vertex="1">
          <mxGeometry x="889.24" y="15" width="115" height="51.88" as="geometry" />
        </mxCell>
        <mxCell id="10odNjJhLR96Ez2bC5Ds-65" value="" style="verticalLabelPosition=bottom;aspect=fixed;html=1;verticalAlign=top;strokeColor=none;align=center;outlineConnect=0;shape=mxgraph.citrix.router;shadow=1;" parent="1" vertex="1">
          <mxGeometry x="903.74" y="-170" width="86" height="57.07" as="geometry" />
        </mxCell>
        <mxCell id="10odNjJhLR96Ez2bC5Ds-66" value="" style="verticalLabelPosition=bottom;sketch=0;aspect=fixed;html=1;verticalAlign=top;strokeColor=none;align=center;outlineConnect=0;shape=mxgraph.citrix.pbx_server;" parent="1" vertex="1">
          <mxGeometry x="599.25" y="-320" width="80" height="104.62" as="geometry" />
        </mxCell>
        <mxCell id="10odNjJhLR96Ez2bC5Ds-85" value="" style="endArrow=none;dashed=1;html=1;rounded=0;strokeWidth=3;" parent="1" source="10odNjJhLR96Ez2bC5Ds-62" target="10odNjJhLR96Ez2bC5Ds-63" edge="1">
          <mxGeometry width="50" height="50" relative="1" as="geometry">
            <mxPoint x="1060" y="90" as="sourcePoint" />
            <mxPoint x="1110" y="40" as="targetPoint" />
          </mxGeometry>
        </mxCell>
        <mxCell id="10odNjJhLR96Ez2bC5Ds-86" value="" style="endArrow=none;dashed=1;html=1;rounded=0;strokeWidth=3;" parent="1" source="10odNjJhLR96Ez2bC5Ds-61" target="10odNjJhLR96Ez2bC5Ds-63" edge="1">
          <mxGeometry width="50" height="50" relative="1" as="geometry">
            <mxPoint x="1060" y="90" as="sourcePoint" />
            <mxPoint x="1110" y="40" as="targetPoint" />
          </mxGeometry>
        </mxCell>
        <mxCell id="10odNjJhLR96Ez2bC5Ds-87" value="" style="endArrow=none;dashed=1;html=1;rounded=0;strokeWidth=3;" parent="1" source="10odNjJhLR96Ez2bC5Ds-60" target="10odNjJhLR96Ez2bC5Ds-63" edge="1">
          <mxGeometry width="50" height="50" relative="1" as="geometry">
            <mxPoint x="1060" y="90" as="sourcePoint" />
            <mxPoint x="1110" y="40" as="targetPoint" />
          </mxGeometry>
        </mxCell>
        <mxCell id="10odNjJhLR96Ez2bC5Ds-88" value="" style="endArrow=none;dashed=1;html=1;rounded=0;strokeWidth=3;" parent="1" source="10odNjJhLR96Ez2bC5Ds-58" target="10odNjJhLR96Ez2bC5Ds-63" edge="1">
          <mxGeometry width="50" height="50" relative="1" as="geometry">
            <mxPoint x="1060" y="90" as="sourcePoint" />
            <mxPoint x="1110" y="40" as="targetPoint" />
          </mxGeometry>
        </mxCell>
        <mxCell id="10odNjJhLR96Ez2bC5Ds-89" value="" style="endArrow=none;dashed=1;html=1;rounded=0;strokeWidth=2;" parent="1" source="10odNjJhLR96Ez2bC5Ds-55" target="10odNjJhLR96Ez2bC5Ds-58" edge="1">
          <mxGeometry width="50" height="50" relative="1" as="geometry">
            <mxPoint x="1223.49" y="90" as="sourcePoint" />
            <mxPoint x="1579.9999999999998" y="175.79628285714261" as="targetPoint" />
          </mxGeometry>
        </mxCell>
        <mxCell id="10odNjJhLR96Ez2bC5Ds-94" value="&#xa;&lt;p style=&quot;margin: 0px; text-indent: 0px; font-size: 19px;&quot;&gt;&lt;span style=&quot;font-family: -apple-system, BlinkMacSystemFont, &amp;quot;Segoe UI&amp;quot;, &amp;quot;Noto Sans&amp;quot;, Helvetica, Arial, &amp;quot;sans-serif&amp;quot;, &amp;quot;Apple Color Emoji&amp;quot;, &amp;quot;Segoe UI Emoji&amp;quot;; font-size: 19px; color: rgb(31, 35, 40);&quot;&gt;Production&lt;/span&gt;&lt;/p&gt;" style="text;html=1;align=center;verticalAlign=middle;whiteSpace=wrap;rounded=0;labelBackgroundColor=none;fontSize=19;spacing=5;" parent="1" vertex="1">
          <mxGeometry x="1185" y="420" width="110" height="60" as="geometry" />
        </mxCell>
        <mxCell id="10odNjJhLR96Ez2bC5Ds-95" value="&lt;p style=&quot;margin: 0px; text-indent: 0px; font-size: 19px;&quot;&gt;&lt;span style=&quot;font-family: -apple-system, BlinkMacSystemFont, &amp;quot;Segoe UI&amp;quot;, &amp;quot;Noto Sans&amp;quot;, Helvetica, Arial, &amp;quot;sans-serif&amp;quot;, &amp;quot;Apple Color Emoji&amp;quot;, &amp;quot;Segoe UI Emoji&amp;quot;; font-size: 19px; color: rgb(31, 35, 40);&quot;&gt;Support &lt;/span&gt;&lt;/p&gt;" style="text;whiteSpace=wrap;html=1;labelBackgroundColor=none;fontSize=19;spacing=5;" parent="1" vertex="1">
          <mxGeometry x="1673.5" y="440" width="90" height="40" as="geometry" />
        </mxCell>
        <mxCell id="10odNjJhLR96Ez2bC5Ds-98" value="" style="endArrow=none;html=1;rounded=0;" parent="1" source="10odNjJhLR96Ez2bC5Ds-4" target="10odNjJhLR96Ez2bC5Ds-62" edge="1">
          <mxGeometry width="50" height="50" relative="1" as="geometry">
            <mxPoint x="1130" y="110" as="sourcePoint" />
            <mxPoint x="630" y="230" as="targetPoint" />
          </mxGeometry>
        </mxCell>
        <mxCell id="10odNjJhLR96Ez2bC5Ds-99" value="" style="endArrow=none;html=1;rounded=0;" parent="1" source="10odNjJhLR96Ez2bC5Ds-2" target="10odNjJhLR96Ez2bC5Ds-62" edge="1">
          <mxGeometry width="50" height="50" relative="1" as="geometry">
            <mxPoint x="1130" y="110" as="sourcePoint" />
            <mxPoint x="1180" y="60" as="targetPoint" />
          </mxGeometry>
        </mxCell>
        <mxCell id="10odNjJhLR96Ez2bC5Ds-100" value="" style="endArrow=none;html=1;rounded=0;" parent="1" source="10odNjJhLR96Ez2bC5Ds-6" target="10odNjJhLR96Ez2bC5Ds-62" edge="1">
          <mxGeometry width="50" height="50" relative="1" as="geometry">
            <mxPoint x="1130" y="110" as="sourcePoint" />
            <mxPoint x="1180" y="60" as="targetPoint" />
          </mxGeometry>
        </mxCell>
        <mxCell id="10odNjJhLR96Ez2bC5Ds-101" value="" style="endArrow=none;html=1;rounded=0;" parent="1" source="10odNjJhLR96Ez2bC5Ds-62" target="10odNjJhLR96Ez2bC5Ds-3" edge="1">
          <mxGeometry width="50" height="50" relative="1" as="geometry">
            <mxPoint x="1130" y="110" as="sourcePoint" />
            <mxPoint x="1180" y="60" as="targetPoint" />
          </mxGeometry>
        </mxCell>
        <mxCell id="10odNjJhLR96Ez2bC5Ds-102" value="" style="endArrow=none;html=1;rounded=0;" parent="1" source="10odNjJhLR96Ez2bC5Ds-62" target="10odNjJhLR96Ez2bC5Ds-5" edge="1">
          <mxGeometry width="50" height="50" relative="1" as="geometry">
            <mxPoint x="1130" y="110" as="sourcePoint" />
            <mxPoint x="1180" y="60" as="targetPoint" />
          </mxGeometry>
        </mxCell>
        <mxCell id="10odNjJhLR96Ez2bC5Ds-103" value="" style="endArrow=none;html=1;rounded=0;" parent="1" source="10odNjJhLR96Ez2bC5Ds-9" target="10odNjJhLR96Ez2bC5Ds-61" edge="1">
          <mxGeometry width="50" height="50" relative="1" as="geometry">
            <mxPoint x="1130" y="110" as="sourcePoint" />
            <mxPoint x="1180" y="60" as="targetPoint" />
          </mxGeometry>
        </mxCell>
        <mxCell id="10odNjJhLR96Ez2bC5Ds-104" value="" style="endArrow=none;html=1;rounded=0;" parent="1" source="10odNjJhLR96Ez2bC5Ds-61" target="10odNjJhLR96Ez2bC5Ds-7" edge="1">
          <mxGeometry width="50" height="50" relative="1" as="geometry">
            <mxPoint x="1130" y="110" as="sourcePoint" />
            <mxPoint x="1180" y="60" as="targetPoint" />
          </mxGeometry>
        </mxCell>
        <mxCell id="10odNjJhLR96Ez2bC5Ds-105" value="" style="endArrow=none;html=1;rounded=0;" parent="1" source="10odNjJhLR96Ez2bC5Ds-61" target="10odNjJhLR96Ez2bC5Ds-12" edge="1">
          <mxGeometry width="50" height="50" relative="1" as="geometry">
            <mxPoint x="1130" y="110" as="sourcePoint" />
            <mxPoint x="1180" y="60" as="targetPoint" />
          </mxGeometry>
        </mxCell>
        <mxCell id="10odNjJhLR96Ez2bC5Ds-106" value="" style="endArrow=none;html=1;rounded=0;" parent="1" source="10odNjJhLR96Ez2bC5Ds-61" target="10odNjJhLR96Ez2bC5Ds-13" edge="1">
          <mxGeometry width="50" height="50" relative="1" as="geometry">
            <mxPoint x="1130" y="110" as="sourcePoint" />
            <mxPoint x="1180" y="60" as="targetPoint" />
          </mxGeometry>
        </mxCell>
        <mxCell id="10odNjJhLR96Ez2bC5Ds-107" value="" style="endArrow=none;html=1;rounded=0;" parent="1" source="10odNjJhLR96Ez2bC5Ds-61" target="10odNjJhLR96Ez2bC5Ds-11" edge="1">
          <mxGeometry width="50" height="50" relative="1" as="geometry">
            <mxPoint x="1130" y="110" as="sourcePoint" />
            <mxPoint x="1180" y="60" as="targetPoint" />
          </mxGeometry>
        </mxCell>
        <mxCell id="10odNjJhLR96Ez2bC5Ds-108" value="" style="endArrow=none;html=1;rounded=0;" parent="1" source="10odNjJhLR96Ez2bC5Ds-7" target="10odNjJhLR96Ez2bC5Ds-8" edge="1">
          <mxGeometry width="50" height="50" relative="1" as="geometry">
            <mxPoint x="1130" y="110" as="sourcePoint" />
            <mxPoint x="1180" y="60" as="targetPoint" />
          </mxGeometry>
        </mxCell>
        <mxCell id="10odNjJhLR96Ez2bC5Ds-109" value="" style="endArrow=none;html=1;rounded=0;" parent="1" source="10odNjJhLR96Ez2bC5Ds-61" target="10odNjJhLR96Ez2bC5Ds-10" edge="1">
          <mxGeometry width="50" height="50" relative="1" as="geometry">
            <mxPoint x="1130" y="110" as="sourcePoint" />
            <mxPoint x="1180" y="60" as="targetPoint" />
          </mxGeometry>
        </mxCell>
        <mxCell id="10odNjJhLR96Ez2bC5Ds-92" value="&lt;p style=&quot;margin: 0px; text-indent: 0px; font-size: 19px;&quot;&gt;&lt;span style=&quot;font-family: -apple-system, BlinkMacSystemFont, &amp;quot;Segoe UI&amp;quot;, &amp;quot;Noto Sans&amp;quot;, Helvetica, Arial, &amp;quot;sans-serif&amp;quot;, &amp;quot;Apple Color Emoji&amp;quot;, &amp;quot;Segoe UI Emoji&amp;quot;; font-size: 19px;&quot;&gt;Management/Secretariat&lt;/span&gt;&lt;/p&gt;" style="text;whiteSpace=wrap;html=1;fontStyle=0;align=center;spacing=5;fontSize=19;labelBackgroundColor=none;fontColor=default;" parent="1" vertex="1">
          <mxGeometry x="540" y="440" width="190" height="40" as="geometry" />
        </mxCell>
        <mxCell id="10odNjJhLR96Ez2bC5Ds-93" value="&lt;p style=&quot;margin: 0px; text-indent: 0px; font-size: 19px;&quot;&gt;&lt;span style=&quot;font-family: -apple-system, BlinkMacSystemFont, &amp;quot;Segoe UI&amp;quot;, &amp;quot;Noto Sans&amp;quot;, Helvetica, Arial, &amp;quot;sans-serif&amp;quot;, &amp;quot;Apple Color Emoji&amp;quot;, &amp;quot;Segoe UI Emoji&amp;quot;; font-size: 19px;&quot;&gt;Study&lt;/span&gt;&lt;/p&gt;" style="text;whiteSpace=wrap;html=1;fontSize=19;align=center;spacing=5;fontColor=default;labelBackgroundColor=none;" parent="1" vertex="1">
          <mxGeometry x="900" y="440" width="70" height="40" as="geometry" />
        </mxCell>
        <mxCell id="10odNjJhLR96Ez2bC5Ds-111" value="" style="endArrow=none;html=1;rounded=0;" parent="1" source="10odNjJhLR96Ez2bC5Ds-44" target="10odNjJhLR96Ez2bC5Ds-60" edge="1">
          <mxGeometry width="50" height="50" relative="1" as="geometry">
            <mxPoint x="1130" y="110" as="sourcePoint" />
            <mxPoint x="1180" y="60" as="targetPoint" />
          </mxGeometry>
        </mxCell>
        <mxCell id="10odNjJhLR96Ez2bC5Ds-112" value="" style="endArrow=none;html=1;rounded=0;" parent="1" source="10odNjJhLR96Ez2bC5Ds-42" target="10odNjJhLR96Ez2bC5Ds-60" edge="1">
          <mxGeometry width="50" height="50" relative="1" as="geometry">
            <mxPoint x="1130" y="110" as="sourcePoint" />
            <mxPoint x="1180" y="60" as="targetPoint" />
          </mxGeometry>
        </mxCell>
        <mxCell id="10odNjJhLR96Ez2bC5Ds-113" value="" style="endArrow=none;html=1;rounded=0;" parent="1" source="10odNjJhLR96Ez2bC5Ds-43" target="10odNjJhLR96Ez2bC5Ds-60" edge="1">
          <mxGeometry width="50" height="50" relative="1" as="geometry">
            <mxPoint x="1130" y="110" as="sourcePoint" />
            <mxPoint x="1180" y="60" as="targetPoint" />
          </mxGeometry>
        </mxCell>
        <mxCell id="10odNjJhLR96Ez2bC5Ds-114" value="" style="endArrow=none;html=1;rounded=0;" parent="1" source="10odNjJhLR96Ez2bC5Ds-60" target="10odNjJhLR96Ez2bC5Ds-45" edge="1">
          <mxGeometry width="50" height="50" relative="1" as="geometry">
            <mxPoint x="1130" y="110" as="sourcePoint" />
            <mxPoint x="1180" y="60" as="targetPoint" />
          </mxGeometry>
        </mxCell>
        <mxCell id="10odNjJhLR96Ez2bC5Ds-115" value="" style="endArrow=none;html=1;rounded=0;" parent="1" source="10odNjJhLR96Ez2bC5Ds-60" target="10odNjJhLR96Ez2bC5Ds-51" edge="1">
          <mxGeometry width="50" height="50" relative="1" as="geometry">
            <mxPoint x="1130" y="110" as="sourcePoint" />
            <mxPoint x="1180" y="60" as="targetPoint" />
          </mxGeometry>
        </mxCell>
        <mxCell id="10odNjJhLR96Ez2bC5Ds-116" value="" style="endArrow=none;html=1;rounded=0;" parent="1" source="10odNjJhLR96Ez2bC5Ds-60" target="10odNjJhLR96Ez2bC5Ds-47" edge="1">
          <mxGeometry width="50" height="50" relative="1" as="geometry">
            <mxPoint x="1130" y="110" as="sourcePoint" />
            <mxPoint x="1180" y="60" as="targetPoint" />
          </mxGeometry>
        </mxCell>
        <mxCell id="10odNjJhLR96Ez2bC5Ds-117" value="" style="endArrow=none;html=1;rounded=0;" parent="1" source="10odNjJhLR96Ez2bC5Ds-46" target="10odNjJhLR96Ez2bC5Ds-60" edge="1">
          <mxGeometry width="50" height="50" relative="1" as="geometry">
            <mxPoint x="1130" y="110" as="sourcePoint" />
            <mxPoint x="1180" y="60" as="targetPoint" />
          </mxGeometry>
        </mxCell>
        <mxCell id="10odNjJhLR96Ez2bC5Ds-118" value="" style="endArrow=none;html=1;rounded=0;" parent="1" source="10odNjJhLR96Ez2bC5Ds-60" target="10odNjJhLR96Ez2bC5Ds-49" edge="1">
          <mxGeometry width="50" height="50" relative="1" as="geometry">
            <mxPoint x="1130" y="110" as="sourcePoint" />
            <mxPoint x="1180" y="60" as="targetPoint" />
          </mxGeometry>
        </mxCell>
        <mxCell id="10odNjJhLR96Ez2bC5Ds-119" value="" style="endArrow=none;html=1;rounded=0;" parent="1" source="10odNjJhLR96Ez2bC5Ds-50" target="10odNjJhLR96Ez2bC5Ds-60" edge="1">
          <mxGeometry width="50" height="50" relative="1" as="geometry">
            <mxPoint x="1130" y="110" as="sourcePoint" />
            <mxPoint x="1180" y="60" as="targetPoint" />
          </mxGeometry>
        </mxCell>
        <mxCell id="10odNjJhLR96Ez2bC5Ds-120" value="" style="endArrow=none;html=1;rounded=0;" parent="1" source="10odNjJhLR96Ez2bC5Ds-48" target="10odNjJhLR96Ez2bC5Ds-60" edge="1">
          <mxGeometry width="50" height="50" relative="1" as="geometry">
            <mxPoint x="1130" y="110" as="sourcePoint" />
            <mxPoint x="1180" y="60" as="targetPoint" />
          </mxGeometry>
        </mxCell>
        <mxCell id="10odNjJhLR96Ez2bC5Ds-121" value="" style="endArrow=none;html=1;rounded=0;" parent="1" source="10odNjJhLR96Ez2bC5Ds-22" target="10odNjJhLR96Ez2bC5Ds-55" edge="1">
          <mxGeometry width="50" height="50" relative="1" as="geometry">
            <mxPoint x="1230" y="110" as="sourcePoint" />
            <mxPoint x="1280" y="60" as="targetPoint" />
          </mxGeometry>
        </mxCell>
        <mxCell id="10odNjJhLR96Ez2bC5Ds-122" value="" style="endArrow=none;html=1;rounded=0;" parent="1" source="10odNjJhLR96Ez2bC5Ds-19" target="10odNjJhLR96Ez2bC5Ds-55" edge="1">
          <mxGeometry width="50" height="50" relative="1" as="geometry">
            <mxPoint x="1230" y="110" as="sourcePoint" />
            <mxPoint x="1280" y="60" as="targetPoint" />
          </mxGeometry>
        </mxCell>
        <mxCell id="10odNjJhLR96Ez2bC5Ds-123" value="" style="endArrow=none;html=1;rounded=0;" parent="1" source="10odNjJhLR96Ez2bC5Ds-21" target="10odNjJhLR96Ez2bC5Ds-55" edge="1">
          <mxGeometry width="50" height="50" relative="1" as="geometry">
            <mxPoint x="1300" y="290" as="sourcePoint" />
            <mxPoint x="1350" y="240" as="targetPoint" />
          </mxGeometry>
        </mxCell>
        <mxCell id="10odNjJhLR96Ez2bC5Ds-125" value="" style="endArrow=none;html=1;rounded=0;" parent="1" source="10odNjJhLR96Ez2bC5Ds-55" target="10odNjJhLR96Ez2bC5Ds-25" edge="1">
          <mxGeometry width="50" height="50" relative="1" as="geometry">
            <mxPoint x="1310" y="150" as="sourcePoint" />
            <mxPoint x="1360" y="100" as="targetPoint" />
          </mxGeometry>
        </mxCell>
        <mxCell id="10odNjJhLR96Ez2bC5Ds-126" value="" style="endArrow=none;html=1;rounded=0;" parent="1" source="10odNjJhLR96Ez2bC5Ds-55" target="10odNjJhLR96Ez2bC5Ds-31" edge="1">
          <mxGeometry width="50" height="50" relative="1" as="geometry">
            <mxPoint x="1310" y="150" as="sourcePoint" />
            <mxPoint x="1360" y="100" as="targetPoint" />
          </mxGeometry>
        </mxCell>
        <mxCell id="10odNjJhLR96Ez2bC5Ds-127" value="" style="endArrow=none;html=1;rounded=0;" parent="1" source="10odNjJhLR96Ez2bC5Ds-55" target="10odNjJhLR96Ez2bC5Ds-20" edge="1">
          <mxGeometry width="50" height="50" relative="1" as="geometry">
            <mxPoint x="1310" y="150" as="sourcePoint" />
            <mxPoint x="1360" y="100" as="targetPoint" />
          </mxGeometry>
        </mxCell>
        <mxCell id="10odNjJhLR96Ez2bC5Ds-128" value="" style="endArrow=none;html=1;rounded=0;" parent="1" source="10odNjJhLR96Ez2bC5Ds-55" target="10odNjJhLR96Ez2bC5Ds-18" edge="1">
          <mxGeometry width="50" height="50" relative="1" as="geometry">
            <mxPoint x="1310" y="150" as="sourcePoint" />
            <mxPoint x="1360" y="100" as="targetPoint" />
          </mxGeometry>
        </mxCell>
        <mxCell id="10odNjJhLR96Ez2bC5Ds-129" value="" style="endArrow=none;html=1;rounded=0;" parent="1" source="10odNjJhLR96Ez2bC5Ds-21" target="10odNjJhLR96Ez2bC5Ds-23" edge="1">
          <mxGeometry width="50" height="50" relative="1" as="geometry">
            <mxPoint x="1310" y="150" as="sourcePoint" />
            <mxPoint x="1360" y="100" as="targetPoint" />
          </mxGeometry>
        </mxCell>
        <mxCell id="10odNjJhLR96Ez2bC5Ds-130" value="" style="endArrow=none;html=1;rounded=0;" parent="1" source="10odNjJhLR96Ez2bC5Ds-55" target="10odNjJhLR96Ez2bC5Ds-24" edge="1">
          <mxGeometry width="50" height="50" relative="1" as="geometry">
            <mxPoint x="1310" y="150" as="sourcePoint" />
            <mxPoint x="1360" y="100" as="targetPoint" />
          </mxGeometry>
        </mxCell>
        <mxCell id="10odNjJhLR96Ez2bC5Ds-131" value="" style="endArrow=none;html=1;rounded=0;" parent="1" source="10odNjJhLR96Ez2bC5Ds-55" target="10odNjJhLR96Ez2bC5Ds-32" edge="1">
          <mxGeometry width="50" height="50" relative="1" as="geometry">
            <mxPoint x="1310" y="150" as="sourcePoint" />
            <mxPoint x="1360" y="100" as="targetPoint" />
          </mxGeometry>
        </mxCell>
        <mxCell id="10odNjJhLR96Ez2bC5Ds-132" value="" style="endArrow=none;html=1;rounded=0;" parent="1" source="10odNjJhLR96Ez2bC5Ds-57" target="10odNjJhLR96Ez2bC5Ds-30" edge="1">
          <mxGeometry width="50" height="50" relative="1" as="geometry">
            <mxPoint x="1310" y="150" as="sourcePoint" />
            <mxPoint x="1360" y="100" as="targetPoint" />
          </mxGeometry>
        </mxCell>
        <mxCell id="10odNjJhLR96Ez2bC5Ds-134" value="" style="endArrow=none;html=1;rounded=0;" parent="1" source="10odNjJhLR96Ez2bC5Ds-57" target="10odNjJhLR96Ez2bC5Ds-27" edge="1">
          <mxGeometry width="50" height="50" relative="1" as="geometry">
            <mxPoint x="1310" y="150" as="sourcePoint" />
            <mxPoint x="1360" y="100" as="targetPoint" />
          </mxGeometry>
        </mxCell>
        <mxCell id="10odNjJhLR96Ez2bC5Ds-135" value="" style="endArrow=none;html=1;rounded=0;" parent="1" source="10odNjJhLR96Ez2bC5Ds-57" target="10odNjJhLR96Ez2bC5Ds-29" edge="1">
          <mxGeometry width="50" height="50" relative="1" as="geometry">
            <mxPoint x="1310" y="150" as="sourcePoint" />
            <mxPoint x="1360" y="100" as="targetPoint" />
          </mxGeometry>
        </mxCell>
        <mxCell id="10odNjJhLR96Ez2bC5Ds-136" value="" style="endArrow=none;html=1;rounded=0;" parent="1" source="10odNjJhLR96Ez2bC5Ds-57" target="10odNjJhLR96Ez2bC5Ds-33" edge="1">
          <mxGeometry width="50" height="50" relative="1" as="geometry">
            <mxPoint x="1310" y="150" as="sourcePoint" />
            <mxPoint x="1360" y="100" as="targetPoint" />
          </mxGeometry>
        </mxCell>
        <mxCell id="10odNjJhLR96Ez2bC5Ds-137" value="" style="endArrow=none;html=1;rounded=0;" parent="1" source="10odNjJhLR96Ez2bC5Ds-57" target="10odNjJhLR96Ez2bC5Ds-41" edge="1">
          <mxGeometry width="50" height="50" relative="1" as="geometry">
            <mxPoint x="1310" y="150" as="sourcePoint" />
            <mxPoint x="1360" y="100" as="targetPoint" />
          </mxGeometry>
        </mxCell>
        <mxCell id="10odNjJhLR96Ez2bC5Ds-138" value="" style="endArrow=none;html=1;rounded=0;" parent="1" source="10odNjJhLR96Ez2bC5Ds-57" target="10odNjJhLR96Ez2bC5Ds-36" edge="1">
          <mxGeometry width="50" height="50" relative="1" as="geometry">
            <mxPoint x="1310" y="150" as="sourcePoint" />
            <mxPoint x="1360" y="100" as="targetPoint" />
          </mxGeometry>
        </mxCell>
        <mxCell id="10odNjJhLR96Ez2bC5Ds-139" value="" style="endArrow=none;html=1;rounded=0;" parent="1" source="10odNjJhLR96Ez2bC5Ds-34" target="10odNjJhLR96Ez2bC5Ds-57" edge="1">
          <mxGeometry width="50" height="50" relative="1" as="geometry">
            <mxPoint x="1310" y="150" as="sourcePoint" />
            <mxPoint x="1360" y="100" as="targetPoint" />
          </mxGeometry>
        </mxCell>
        <mxCell id="10odNjJhLR96Ez2bC5Ds-140" value="" style="endArrow=none;html=1;rounded=0;" parent="1" source="10odNjJhLR96Ez2bC5Ds-39" target="10odNjJhLR96Ez2bC5Ds-57" edge="1">
          <mxGeometry width="50" height="50" relative="1" as="geometry">
            <mxPoint x="1310" y="150" as="sourcePoint" />
            <mxPoint x="1360" y="100" as="targetPoint" />
          </mxGeometry>
        </mxCell>
        <mxCell id="10odNjJhLR96Ez2bC5Ds-141" value="" style="endArrow=none;html=1;rounded=0;" parent="1" source="10odNjJhLR96Ez2bC5Ds-40" target="10odNjJhLR96Ez2bC5Ds-57" edge="1">
          <mxGeometry width="50" height="50" relative="1" as="geometry">
            <mxPoint x="1310" y="150" as="sourcePoint" />
            <mxPoint x="1360" y="100" as="targetPoint" />
          </mxGeometry>
        </mxCell>
        <mxCell id="10odNjJhLR96Ez2bC5Ds-142" value="" style="endArrow=none;html=1;rounded=0;" parent="1" source="10odNjJhLR96Ez2bC5Ds-37" target="10odNjJhLR96Ez2bC5Ds-57" edge="1">
          <mxGeometry width="50" height="50" relative="1" as="geometry">
            <mxPoint x="1310" y="150" as="sourcePoint" />
            <mxPoint x="1360" y="100" as="targetPoint" />
          </mxGeometry>
        </mxCell>
        <mxCell id="mSxJnto6pydpAY6vr2C2-1" value="" style="endArrow=none;dashed=1;html=1;rounded=0;strokeWidth=2;" edge="1" parent="1" source="10odNjJhLR96Ez2bC5Ds-57" target="10odNjJhLR96Ez2bC5Ds-58">
          <mxGeometry width="50" height="50" relative="1" as="geometry">
            <mxPoint x="1723" y="234" as="sourcePoint" />
            <mxPoint x="1586.5100000000002" y="194.47854931446273" as="targetPoint" />
          </mxGeometry>
        </mxCell>
        <mxCell id="10odNjJhLR96Ez2bC5Ds-58" value="" style="verticalLabelPosition=bottom;sketch=0;aspect=fixed;html=1;verticalAlign=top;strokeColor=none;align=center;outlineConnect=0;shape=mxgraph.citrix.switch;shadow=1;" parent="1" vertex="1">
          <mxGeometry x="1430" y="170" width="66.51" height="30" as="geometry" />
        </mxCell>
        <mxCell id="mSxJnto6pydpAY6vr2C2-2" value="" style="verticalLabelPosition=bottom;sketch=0;aspect=fixed;html=1;verticalAlign=top;strokeColor=none;align=center;outlineConnect=0;shape=mxgraph.citrix.switch;shadow=1;" vertex="1" parent="1">
          <mxGeometry x="1182.5" y="15" width="115" height="51.88" as="geometry" />
        </mxCell>
        <mxCell id="mSxJnto6pydpAY6vr2C2-4" value="" style="endArrow=none;dashed=1;html=1;rounded=0;strokeWidth=3;" edge="1" parent="1" source="10odNjJhLR96Ez2bC5Ds-61" target="mSxJnto6pydpAY6vr2C2-2">
          <mxGeometry width="50" height="50" relative="1" as="geometry">
            <mxPoint x="1030" y="200" as="sourcePoint" />
            <mxPoint x="1070" y="160" as="targetPoint" />
          </mxGeometry>
        </mxCell>
        <mxCell id="mSxJnto6pydpAY6vr2C2-5" value="" style="endArrow=none;dashed=1;html=1;rounded=0;strokeWidth=3;" edge="1" parent="1" source="10odNjJhLR96Ez2bC5Ds-62" target="mSxJnto6pydpAY6vr2C2-2">
          <mxGeometry width="50" height="50" relative="1" as="geometry">
            <mxPoint x="686.51" y="141.88" as="sourcePoint" />
            <mxPoint x="736.51" y="91.88" as="targetPoint" />
          </mxGeometry>
        </mxCell>
        <mxCell id="mSxJnto6pydpAY6vr2C2-6" value="" style="endArrow=none;dashed=1;html=1;rounded=0;strokeWidth=3;" edge="1" parent="1" source="10odNjJhLR96Ez2bC5Ds-60" target="mSxJnto6pydpAY6vr2C2-2">
          <mxGeometry width="50" height="50" relative="1" as="geometry">
            <mxPoint x="1020" y="210" as="sourcePoint" />
            <mxPoint x="1070" y="160" as="targetPoint" />
          </mxGeometry>
        </mxCell>
        <mxCell id="mSxJnto6pydpAY6vr2C2-7" value="" style="endArrow=none;dashed=1;html=1;rounded=0;strokeWidth=3;" edge="1" parent="1" source="10odNjJhLR96Ez2bC5Ds-58" target="mSxJnto6pydpAY6vr2C2-2">
          <mxGeometry width="50" height="50" relative="1" as="geometry">
            <mxPoint x="1020" y="210" as="sourcePoint" />
            <mxPoint x="1070" y="160" as="targetPoint" />
          </mxGeometry>
        </mxCell>
        <mxCell id="mSxJnto6pydpAY6vr2C2-8" value="" style="endArrow=none;html=1;rounded=0;strokeWidth=4;" edge="1" parent="1" source="10odNjJhLR96Ez2bC5Ds-63" target="10odNjJhLR96Ez2bC5Ds-65">
          <mxGeometry width="50" height="50" relative="1" as="geometry">
            <mxPoint x="980" y="7.069999999999993" as="sourcePoint" />
            <mxPoint x="1030" y="-42.93000000000001" as="targetPoint" />
          </mxGeometry>
        </mxCell>
        <mxCell id="mSxJnto6pydpAY6vr2C2-9" value="" style="endArrow=none;html=1;rounded=0;strokeWidth=4;" edge="1" parent="1" source="mSxJnto6pydpAY6vr2C2-2" target="10odNjJhLR96Ez2bC5Ds-63">
          <mxGeometry width="50" height="50" relative="1" as="geometry">
            <mxPoint x="1170" y="210" as="sourcePoint" />
            <mxPoint x="1230" y="-50" as="targetPoint" />
            <Array as="points">
              <mxPoint x="1240" y="-140" />
            </Array>
          </mxGeometry>
        </mxCell>
        <mxCell id="mSxJnto6pydpAY6vr2C2-10" value="" style="verticalLabelPosition=bottom;sketch=0;aspect=fixed;html=1;verticalAlign=top;strokeColor=none;align=center;outlineConnect=0;shape=mxgraph.citrix.router;shadow=1;gradientColor=none;" vertex="1" parent="1">
          <mxGeometry x="1197" y="-170" width="86" height="57.07" as="geometry" />
        </mxCell>
        <mxCell id="mSxJnto6pydpAY6vr2C2-11" value="" style="endArrow=none;html=1;rounded=0;strokeWidth=4;" edge="1" parent="1" source="10odNjJhLR96Ez2bC5Ds-65" target="mSxJnto6pydpAY6vr2C2-2">
          <mxGeometry width="50" height="50" relative="1" as="geometry">
            <mxPoint x="1170" y="210" as="sourcePoint" />
            <mxPoint x="1220" y="160" as="targetPoint" />
          </mxGeometry>
        </mxCell>
        <mxCell id="mSxJnto6pydpAY6vr2C2-12" value="" style="verticalLabelPosition=bottom;sketch=0;aspect=fixed;html=1;verticalAlign=top;strokeColor=none;align=center;outlineConnect=0;shape=mxgraph.citrix.pbx_server;" vertex="1" parent="1">
          <mxGeometry x="595" y="-150" width="80" height="104.62" as="geometry" />
        </mxCell>
        <mxCell id="mSxJnto6pydpAY6vr2C2-14" value="" style="endArrow=none;html=1;rounded=0;" edge="1" parent="1" source="10odNjJhLR96Ez2bC5Ds-61" target="10odNjJhLR96Ez2bC5Ds-7">
          <mxGeometry width="50" height="50" relative="1" as="geometry">
            <mxPoint x="944" y="200" as="sourcePoint" />
            <mxPoint x="917" y="380" as="targetPoint" />
          </mxGeometry>
        </mxCell>
        <mxCell id="10odNjJhLR96Ez2bC5Ds-7" value="" style="verticalLabelPosition=bottom;sketch=0;aspect=fixed;html=1;verticalAlign=top;strokeColor=none;align=center;outlineConnect=0;shape=mxgraph.citrix.thin_client;" parent="1" vertex="1">
          <mxGeometry x="903.74" y="330" width="30" height="30" as="geometry" />
        </mxCell>
        <mxCell id="mSxJnto6pydpAY6vr2C2-15" value="" style="endArrow=none;html=1;rounded=0;" edge="1" parent="1" target="10odNjJhLR96Ez2bC5Ds-61">
          <mxGeometry width="50" height="50" relative="1" as="geometry">
            <mxPoint x="1040" y="400" as="sourcePoint" />
            <mxPoint x="1090" y="350" as="targetPoint" />
          </mxGeometry>
        </mxCell>
        <mxCell id="mSxJnto6pydpAY6vr2C2-18" value="" style="endArrow=none;html=1;rounded=0;fillColor=#d0cee2;strokeColor=#56517e;strokeWidth=4;" edge="1" parent="1" source="mSxJnto6pydpAY6vr2C2-2" target="mSxJnto6pydpAY6vr2C2-12">
          <mxGeometry width="50" height="50" relative="1" as="geometry">
            <mxPoint x="1260" y="-20" as="sourcePoint" />
            <mxPoint x="1310" y="-70" as="targetPoint" />
          </mxGeometry>
        </mxCell>
        <mxCell id="mSxJnto6pydpAY6vr2C2-19" value="" style="endArrow=none;html=1;rounded=0;fillColor=#d0cee2;strokeColor=#56517e;strokeWidth=5;" edge="1" parent="1" source="10odNjJhLR96Ez2bC5Ds-63" target="10odNjJhLR96Ez2bC5Ds-66">
          <mxGeometry width="50" height="50" relative="1" as="geometry">
            <mxPoint x="1260" y="200" as="sourcePoint" />
            <mxPoint x="1310" y="150" as="targetPoint" />
          </mxGeometry>
        </mxCell>
        <mxCell id="mSxJnto6pydpAY6vr2C2-20" value="" style="endArrow=none;html=1;rounded=0;" edge="1" parent="1" source="10odNjJhLR96Ez2bC5Ds-55" target="10odNjJhLR96Ez2bC5Ds-21">
          <mxGeometry width="50" height="50" relative="1" as="geometry">
            <mxPoint x="1711" y="160" as="sourcePoint" />
            <mxPoint x="1739" y="85" as="targetPoint" />
          </mxGeometry>
        </mxCell>
        <mxCell id="mSxJnto6pydpAY6vr2C2-21" value="" style="endArrow=none;html=1;rounded=0;" edge="1" parent="1" source="10odNjJhLR96Ez2bC5Ds-55" target="10odNjJhLR96Ez2bC5Ds-21">
          <mxGeometry width="50" height="50" relative="1" as="geometry">
            <mxPoint x="1707" y="160" as="sourcePoint" />
            <mxPoint x="1716" y="97" as="targetPoint" />
          </mxGeometry>
        </mxCell>
        <mxCell id="10odNjJhLR96Ez2bC5Ds-21" value="" style="verticalLabelPosition=bottom;sketch=0;aspect=fixed;html=1;verticalAlign=top;strokeColor=none;align=center;outlineConnect=0;shape=mxgraph.citrix.thin_client;" parent="1" vertex="1">
          <mxGeometry x="1691.75" y="120" width="30" height="30" as="geometry" />
        </mxCell>
      </root>
    </mxGraphModel>
  </diagram>
</mxfile>
